<svg width="801" height="310" viewBox="0 0 801 310" fill="none" xmlns="http://www.w3.org/2000/svg">
<rect width="801" height="310" fill="#FAFAFA"/>
<g opacity="0.2">
<path d="M336.728 202L331.8 193.296H329.688V202H325.208V179.664H333.592C335.32 179.664 336.792 179.973 338.008 180.592C339.224 181.189 340.131 182.011 340.728 183.056C341.347 184.08 341.656 185.232 341.656 186.512C341.656 187.984 341.229 189.317 340.376 190.512C339.523 191.685 338.253 192.496 336.568 192.944L341.912 202H336.728ZM329.688 189.936H333.432C334.648 189.936 335.555 189.648 336.152 189.072C336.749 188.475 337.048 187.653 337.048 186.608C337.048 185.584 336.749 184.795 336.152 184.24C335.555 183.664 334.648 183.376 333.432 183.376H329.688V189.936ZM348.268 183.28V188.88H355.788V192.432H348.268V198.352H356.748V202H343.788V179.632H356.748V183.28H348.268ZM372.595 197.744H363.699L362.227 202H357.523L365.555 179.632H370.771L378.803 202H374.067L372.595 197.744ZM371.379 194.16L368.147 184.816L364.915 194.16H371.379ZM387.598 202.224C386.04 202.224 384.632 201.957 383.374 201.424C382.136 200.891 381.155 200.123 380.43 199.12C379.704 198.117 379.331 196.933 379.31 195.568H384.11C384.174 196.485 384.494 197.211 385.07 197.744C385.667 198.277 386.478 198.544 387.502 198.544C388.547 198.544 389.368 198.299 389.966 197.808C390.563 197.296 390.862 196.635 390.862 195.824C390.862 195.163 390.659 194.619 390.254 194.192C389.848 193.765 389.336 193.435 388.718 193.2C388.12 192.944 387.288 192.667 386.222 192.368C384.771 191.941 383.587 191.525 382.67 191.12C381.774 190.693 380.995 190.064 380.334 189.232C379.694 188.379 379.374 187.248 379.374 185.84C379.374 184.517 379.704 183.365 380.366 182.384C381.027 181.403 381.955 180.656 383.15 180.144C384.344 179.611 385.71 179.344 387.246 179.344C389.55 179.344 391.416 179.909 392.846 181.04C394.296 182.149 395.096 183.707 395.246 185.712H390.318C390.275 184.944 389.944 184.315 389.326 183.824C388.728 183.312 387.928 183.056 386.926 183.056C386.051 183.056 385.347 183.28 384.814 183.728C384.302 184.176 384.046 184.827 384.046 185.68C384.046 186.277 384.238 186.779 384.622 187.184C385.027 187.568 385.518 187.888 386.094 188.144C386.691 188.379 387.523 188.656 388.59 188.976C390.04 189.403 391.224 189.829 392.142 190.256C393.059 190.683 393.848 191.323 394.51 192.176C395.171 193.029 395.502 194.149 395.502 195.536C395.502 196.731 395.192 197.84 394.574 198.864C393.955 199.888 393.048 200.709 391.854 201.328C390.659 201.925 389.24 202.224 387.598 202.224ZM407.833 202.224C405.743 202.224 403.823 201.733 402.074 200.752C400.324 199.771 398.938 198.416 397.913 196.688C396.889 194.939 396.377 192.965 396.377 190.768C396.377 188.592 396.889 186.64 397.913 184.912C398.938 183.163 400.324 181.797 402.074 180.816C403.823 179.835 405.743 179.344 407.833 179.344C409.946 179.344 411.866 179.835 413.594 180.816C415.343 181.797 416.719 183.163 417.722 184.912C418.746 186.64 419.258 188.592 419.258 190.768C419.258 192.965 418.746 194.939 417.722 196.688C416.719 198.416 415.343 199.771 413.594 200.752C411.844 201.733 409.924 202.224 407.833 202.224ZM407.833 198.224C409.178 198.224 410.362 197.925 411.385 197.328C412.41 196.709 413.21 195.835 413.786 194.704C414.362 193.573 414.649 192.261 414.649 190.768C414.649 189.275 414.362 187.973 413.786 186.864C413.21 185.733 412.41 184.869 411.385 184.272C410.362 183.675 409.178 183.376 407.833 183.376C406.49 183.376 405.295 183.675 404.25 184.272C403.226 184.869 402.426 185.733 401.85 186.864C401.273 187.973 400.985 189.275 400.985 190.768C400.985 192.261 401.273 193.573 401.85 194.704C402.426 195.835 403.226 196.709 404.25 197.328C405.295 197.925 406.49 198.224 407.833 198.224ZM439.775 202H435.295L425.151 186.672V202H420.671V179.632H425.151L435.295 194.992V179.632H439.775V202ZM466.634 179.664V202H462.154V187.472L456.17 202H452.778L446.762 187.472V202H442.282V179.664H447.37L454.474 196.272L461.578 179.664H466.634ZM473.623 198.448H480.983V202H469.143V179.664H473.623V198.448ZM504.8 202L502.368 199.6C500.298 201.456 497.77 202.384 494.784 202.384C493.141 202.384 491.69 202.107 490.432 201.552C489.194 200.976 488.234 200.176 487.552 199.152C486.869 198.107 486.528 196.901 486.528 195.536C486.528 194.064 486.944 192.741 487.776 191.568C488.608 190.395 489.834 189.445 491.456 188.72C490.88 188.016 490.464 187.344 490.208 186.704C489.952 186.043 489.824 185.339 489.824 184.592C489.824 183.568 490.09 182.651 490.624 181.84C491.157 181.008 491.914 180.357 492.896 179.888C493.898 179.419 495.061 179.184 496.384 179.184C497.728 179.184 498.88 179.44 499.84 179.952C500.8 180.464 501.514 181.147 501.984 182C502.453 182.853 502.656 183.803 502.592 184.848H498.24C498.261 184.144 498.09 183.611 497.728 183.248C497.365 182.864 496.874 182.672 496.256 182.672C495.658 182.672 495.157 182.853 494.752 183.216C494.368 183.557 494.176 184.005 494.176 184.56C494.176 185.093 494.336 185.627 494.656 186.16C494.976 186.672 495.498 187.312 496.224 188.08L501.856 193.648C501.898 193.605 501.93 193.563 501.952 193.52C501.973 193.477 501.994 193.435 502.016 193.392L503.84 190.352H508.512L506.272 194.288C505.845 195.12 505.386 195.909 504.896 196.656L510.304 202H504.8ZM494.912 198.672C496.661 198.672 498.208 198.053 499.552 196.816L494.048 191.376C491.978 192.293 490.944 193.595 490.944 195.28C490.944 196.24 491.306 197.051 492.032 197.712C492.757 198.352 493.717 198.672 494.912 198.672ZM527.827 202L522.899 193.296H520.787V202H516.307V179.664H524.691C526.419 179.664 527.891 179.973 529.107 180.592C530.323 181.189 531.229 182.011 531.827 183.056C532.445 184.08 532.755 185.232 532.755 186.512C532.755 187.984 532.328 189.317 531.475 190.512C530.621 191.685 529.352 192.496 527.667 192.944L533.011 202H527.827ZM520.787 189.936H524.531C525.747 189.936 526.653 189.648 527.251 189.072C527.848 188.475 528.147 187.653 528.147 186.608C528.147 185.584 527.848 184.795 527.251 184.24C526.653 183.664 525.747 183.376 524.531 183.376H520.787V189.936ZM539.367 183.28V188.88H546.887V192.432H539.367V198.352H547.847V202H534.887V179.632H547.847V183.28H539.367ZM557.71 202.224C556.153 202.224 554.745 201.957 553.486 201.424C552.249 200.891 551.267 200.123 550.542 199.12C549.817 198.117 549.443 196.933 549.422 195.568H554.222C554.286 196.485 554.606 197.211 555.182 197.744C555.779 198.277 556.59 198.544 557.614 198.544C558.659 198.544 559.481 198.299 560.078 197.808C560.675 197.296 560.974 196.635 560.974 195.824C560.974 195.163 560.771 194.619 560.366 194.192C559.961 193.765 559.449 193.435 558.83 193.2C558.233 192.944 557.401 192.667 556.334 192.368C554.883 191.941 553.699 191.525 552.782 191.12C551.886 190.693 551.107 190.064 550.446 189.232C549.806 188.379 549.486 187.248 549.486 185.84C549.486 184.517 549.817 183.365 550.478 182.384C551.139 181.403 552.067 180.656 553.262 180.144C554.457 179.611 555.822 179.344 557.358 179.344C559.662 179.344 561.529 179.909 562.958 181.04C564.409 182.149 565.209 183.707 565.358 185.712H560.43C560.387 184.944 560.057 184.315 559.438 183.824C558.841 183.312 558.041 183.056 557.038 183.056C556.163 183.056 555.459 183.28 554.926 183.728C554.414 184.176 554.158 184.827 554.158 185.68C554.158 186.277 554.35 186.779 554.734 187.184C555.139 187.568 555.63 187.888 556.206 188.144C556.803 188.379 557.635 188.656 558.702 188.976C560.153 189.403 561.337 189.829 562.254 190.256C563.171 190.683 563.961 191.323 564.622 192.176C565.283 193.029 565.614 194.149 565.614 195.536C565.614 196.731 565.305 197.84 564.686 198.864C564.067 199.888 563.161 200.709 561.966 201.328C560.771 201.925 559.353 202.224 557.71 202.224ZM566.49 190.8C566.49 188.603 566.981 186.64 567.962 184.912C568.965 183.163 570.319 181.808 572.026 180.848C573.754 179.867 575.685 179.376 577.818 179.376C580.314 179.376 582.501 180.016 584.378 181.296C586.255 182.576 587.567 184.347 588.314 186.608H583.162C582.65 185.541 581.925 184.741 580.986 184.208C580.069 183.675 579.002 183.408 577.786 183.408C576.485 183.408 575.322 183.717 574.298 184.336C573.295 184.933 572.506 185.787 571.93 186.896C571.375 188.005 571.098 189.307 571.098 190.8C571.098 192.272 571.375 193.573 571.93 194.704C572.506 195.813 573.295 196.677 574.298 197.296C575.322 197.893 576.485 198.192 577.786 198.192C579.002 198.192 580.069 197.925 580.986 197.392C581.925 196.837 582.65 196.027 583.162 194.96H588.314C587.567 197.243 586.255 199.024 584.378 200.304C582.522 201.563 580.335 202.192 577.818 202.192C575.685 202.192 573.754 201.712 572.026 200.752C570.319 199.771 568.965 198.416 567.962 196.688C566.981 194.96 566.49 192.997 566.49 190.8ZM601.741 202L596.813 193.296H594.701V202H590.221V179.664H598.605C600.333 179.664 601.805 179.973 603.021 180.592C604.237 181.189 605.143 182.011 605.741 183.056C606.359 184.08 606.669 185.232 606.669 186.512C606.669 187.984 606.242 189.317 605.389 190.512C604.535 191.685 603.266 192.496 601.581 192.944L606.925 202H601.741ZM594.701 189.936H598.445C599.661 189.936 600.567 189.648 601.165 189.072C601.762 188.475 602.061 187.653 602.061 186.608C602.061 185.584 601.762 184.795 601.165 184.24C600.567 183.664 599.661 183.376 598.445 183.376H594.701V189.936ZM613.28 179.664V202H608.8V179.664H613.28ZM632.075 186.576C632.075 187.771 631.787 188.891 631.211 189.936C630.656 190.981 629.771 191.824 628.555 192.464C627.36 193.104 625.845 193.424 624.011 193.424H620.267V202H615.787V179.664H624.011C625.739 179.664 627.211 179.963 628.427 180.56C629.643 181.157 630.549 181.979 631.147 183.024C631.765 184.069 632.075 185.253 632.075 186.576ZM623.819 189.808C625.056 189.808 625.973 189.531 626.571 188.976C627.168 188.4 627.467 187.6 627.467 186.576C627.467 184.4 626.251 183.312 623.819 183.312H620.267V189.808H623.819ZM648.536 179.664V183.28H642.584V202H638.104V183.28H632.152V179.664H648.536Z" fill="#0E0E0E"/>
</g>
<path d="M337.776 117.52C339.216 115.312 341.016 113.584 343.176 112.336C345.336 111.04 347.736 110.392 350.376 110.392V123.424H346.992C343.92 123.424 341.616 124.096 340.08 125.44C338.544 126.736 337.776 129.04 337.776 132.352V151H325.464V110.824H337.776V117.52ZM390.533 130.264C390.533 131.416 390.461 132.616 390.317 133.864H362.453C362.645 136.36 363.437 138.28 364.829 139.624C366.269 140.92 368.021 141.568 370.085 141.568C373.157 141.568 375.293 140.272 376.493 137.68H389.597C388.925 140.32 387.701 142.696 385.925 144.808C384.197 146.92 382.013 148.576 379.373 149.776C376.733 150.976 373.781 151.576 370.517 151.576C366.581 151.576 363.077 150.736 360.005 149.056C356.933 147.376 354.533 144.976 352.805 141.856C351.077 138.736 350.213 135.088 350.213 130.912C350.213 126.736 351.053 123.088 352.733 119.968C354.461 116.848 356.861 114.448 359.933 112.768C363.005 111.088 366.533 110.248 370.517 110.248C374.405 110.248 377.861 111.064 380.885 112.696C383.909 114.328 386.261 116.656 387.941 119.68C389.669 122.704 390.533 126.232 390.533 130.264ZM377.933 127.024C377.933 124.912 377.213 123.232 375.773 121.984C374.333 120.736 372.533 120.112 370.373 120.112C368.309 120.112 366.557 120.712 365.117 121.912C363.725 123.112 362.861 124.816 362.525 127.024H377.933ZM390.98 130.84C390.98 126.712 391.748 123.088 393.284 119.968C394.868 116.848 397.004 114.448 399.692 112.768C402.38 111.088 405.38 110.248 408.692 110.248C411.524 110.248 413.996 110.824 416.108 111.976C418.268 113.128 419.924 114.64 421.076 116.512V110.824H433.388V151H421.076V145.312C419.876 147.184 418.196 148.696 416.036 149.848C413.924 151 411.452 151.576 408.62 151.576C405.356 151.576 402.38 150.736 399.692 149.056C397.004 147.328 394.868 144.904 393.284 141.784C391.748 138.616 390.98 134.968 390.98 130.84ZM421.076 130.912C421.076 127.84 420.212 125.416 418.484 123.64C416.804 121.864 414.74 120.976 412.292 120.976C409.844 120.976 407.756 121.864 406.028 123.64C404.348 125.368 403.508 127.768 403.508 130.84C403.508 133.912 404.348 136.36 406.028 138.184C407.756 139.96 409.844 140.848 412.292 140.848C414.74 140.848 416.804 139.96 418.484 138.184C420.212 136.408 421.076 133.984 421.076 130.912ZM455.039 151.576C451.535 151.576 448.415 150.976 445.679 149.776C442.943 148.576 440.783 146.944 439.199 144.88C437.615 142.768 436.727 140.416 436.535 137.824H448.703C448.847 139.216 449.495 140.344 450.647 141.208C451.799 142.072 453.215 142.504 454.895 142.504C456.431 142.504 457.607 142.216 458.423 141.64C459.287 141.016 459.719 140.224 459.719 139.264C459.719 138.112 459.119 137.272 457.919 136.744C456.719 136.168 454.775 135.544 452.087 134.872C449.207 134.2 446.807 133.504 444.887 132.784C442.967 132.016 441.311 130.84 439.919 129.256C438.527 127.624 437.831 125.44 437.831 122.704C437.831 120.4 438.455 118.312 439.703 116.44C440.999 114.52 442.871 113.008 445.319 111.904C447.815 110.8 450.767 110.248 454.175 110.248C459.215 110.248 463.175 111.496 466.055 113.992C468.983 116.488 470.663 119.8 471.095 123.928H459.719C459.527 122.536 458.903 121.432 457.847 120.616C456.839 119.8 455.495 119.392 453.815 119.392C452.375 119.392 451.271 119.68 450.503 120.256C449.735 120.784 449.351 121.528 449.351 122.488C449.351 123.64 449.951 124.504 451.151 125.08C452.399 125.656 454.319 126.232 456.911 126.808C459.887 127.576 462.311 128.344 464.183 129.112C466.055 129.832 467.687 131.032 469.079 132.712C470.519 134.344 471.263 136.552 471.311 139.336C471.311 141.688 470.639 143.8 469.295 145.672C467.999 147.496 466.103 148.936 463.607 149.992C461.159 151.048 458.303 151.576 455.039 151.576ZM493.532 151.576C489.596 151.576 486.044 150.736 482.876 149.056C479.756 147.376 477.284 144.976 475.46 141.856C473.684 138.736 472.796 135.088 472.796 130.912C472.796 126.784 473.708 123.16 475.532 120.04C477.356 116.872 479.852 114.448 483.02 112.768C486.188 111.088 489.74 110.248 493.676 110.248C497.612 110.248 501.164 111.088 504.332 112.768C507.5 114.448 509.996 116.872 511.82 120.04C513.644 123.16 514.556 126.784 514.556 130.912C514.556 135.04 513.62 138.688 511.748 141.856C509.924 144.976 507.404 147.376 504.188 149.056C501.02 150.736 497.468 151.576 493.532 151.576ZM493.532 140.92C495.884 140.92 497.876 140.056 499.508 138.328C501.188 136.6 502.028 134.128 502.028 130.912C502.028 127.696 501.212 125.224 499.58 123.496C497.996 121.768 496.028 120.904 493.676 120.904C491.276 120.904 489.284 121.768 487.7 123.496C486.116 125.176 485.324 127.648 485.324 130.912C485.324 134.128 486.092 136.6 487.628 138.328C489.212 140.056 491.18 140.92 493.532 140.92ZM541.967 110.392C546.671 110.392 550.415 111.928 553.199 115C556.031 118.024 557.447 122.2 557.447 127.528V151H545.207V129.184C545.207 126.496 544.511 124.408 543.119 122.92C541.727 121.432 539.855 120.688 537.503 120.688C535.151 120.688 533.279 121.432 531.887 122.92C530.495 124.408 529.799 126.496 529.799 129.184V151H517.487V110.824H529.799V116.152C531.047 114.376 532.727 112.984 534.839 111.976C536.951 110.92 539.327 110.392 541.967 110.392Z" fill="#0E0E0E"/>
<path d="M574.715 116.512C575.867 114.64 577.523 113.128 579.683 111.976C581.843 110.824 584.315 110.248 587.099 110.248C590.411 110.248 593.411 111.088 596.099 112.768C598.787 114.448 600.899 116.848 602.435 119.968C604.019 123.088 604.811 126.712 604.811 130.84C604.811 134.968 604.019 138.616 602.435 141.784C600.899 144.904 598.787 147.328 596.099 149.056C593.411 150.736 590.411 151.576 587.099 151.576C584.267 151.576 581.795 151.024 579.683 149.92C577.571 148.768 575.915 147.256 574.715 145.384V151H562.403V97.72H574.715V116.512ZM592.283 130.84C592.283 127.768 591.419 125.368 589.691 123.64C588.011 121.864 585.923 120.976 583.427 120.976C580.979 120.976 578.891 121.864 577.163 123.64C575.483 125.416 574.643 127.84 574.643 130.912C574.643 133.984 575.483 136.408 577.163 138.184C578.891 139.96 580.979 140.848 583.427 140.848C585.875 140.848 587.963 139.96 589.691 138.184C591.419 136.36 592.283 133.912 592.283 130.84ZM619.982 117.52C621.422 115.312 623.222 113.584 625.382 112.336C627.542 111.04 629.942 110.392 632.582 110.392V123.424H629.198C626.126 123.424 623.822 124.096 622.286 125.44C620.75 126.736 619.982 129.04 619.982 132.352V151H607.67V110.824H619.982V117.52ZM640.627 151.576C638.467 151.576 636.691 150.952 635.299 149.704C633.955 148.408 633.283 146.824 633.283 144.952C633.283 143.032 633.955 141.424 635.299 140.128C636.691 138.832 638.467 138.184 640.627 138.184C642.739 138.184 644.467 138.832 645.811 140.128C647.203 141.424 647.899 143.032 647.899 144.952C647.899 146.824 647.203 148.408 645.811 149.704C644.467 150.952 642.739 151.576 640.627 151.576Z" fill="#DD1350"/>
<path d="M151.8 177.776L157.724 216.358C158.06 218.552 159.948 220.171 162.167 220.171C164.65 220.171 166.662 218.159 166.662 215.676V192.981C166.662 190.71 168.029 188.695 170.01 187.582C177.677 183.275 180.855 177.339 182.34 164.842C182.695 161.86 185.167 159.536 188.17 159.536H219.724C221.962 159.536 223.996 160.836 224.936 162.867L249.816 216.632C250.471 218.048 251.89 218.955 253.451 218.955C256.047 218.955 257.957 216.525 257.344 214.003L245.689 166.059C244.857 162.632 247.319 159.425 250.744 158.587C256.051 157.287 259.998 154.346 264.21 146.364C265.879 143.201 266.553 139.62 266.553 136.044V109.846C266.7 106.898 267.223 105.193 269.283 103.349C270.177 102.548 271.375 102.202 272.576 102.202H276.937C278.699 102.202 280.291 103.672 281.795 104.591C283.641 105.718 285 103.168 285 101.006V96.6392C285 96.1794 284.948 95.7193 284.826 95.2763C283.944 92.094 282.789 90.9983 280.517 90.2588C280.032 90.1008 279.521 90.0399 279.01 90.0399H243.06C245.351 93.2549 247.447 93.7588 252.805 92.1248V123.201C252.805 123.906 252.682 124.609 252.404 125.256C250.412 129.895 248.329 130.618 244.408 129.289C243.513 128.985 242.743 128.404 242.137 127.679L217.826 98.5532C207.841 87.0168 201.735 87.3854 190.309 98.2405C190.094 98.445 189.891 98.6718 189.711 98.9078L158.001 140.502C157.516 141.138 157.169 141.869 156.983 142.647L155.551 148.631C155.044 150.749 157.128 152.562 159.155 151.768C160.923 151.076 162.834 152.38 162.834 154.278V161.415C162.834 162.459 162.555 163.491 161.989 164.369C159.885 167.637 158.086 169.516 155.929 170.751C153.341 172.231 151.347 174.829 151.8 177.776Z" fill="#DD1350"/>
<path d="M181.683 215.978L174.959 190.962C174.36 188.735 175.178 186.388 176.905 184.86C183.576 178.959 185.834 173.769 186.552 164.555C186.631 163.541 187.468 162.743 188.484 162.743H196.539C197.742 162.743 198.649 163.841 198.385 165.014C196.134 175.015 192.643 179.551 185.127 185.915L190.206 214.067C190.689 216.749 188.629 219.214 185.904 219.214C183.927 219.214 182.196 217.887 181.683 215.978Z" fill="#DD1350"/>
<path d="M214.08 214.518L222.337 169.706C222.677 167.862 225.19 167.555 225.963 169.263L232.338 183.334C232.963 184.716 233.017 186.288 232.488 187.709L221.716 216.626C221.136 218.182 219.65 219.214 217.99 219.214C215.505 219.214 213.629 216.961 214.08 214.518Z" fill="#DD1350"/>
<path d="M178.757 183.321C184.084 177.55 186.117 172.603 186.383 164.659C186.419 163.602 187.271 162.743 188.328 162.743H194.071C188.216 175.728 183.816 181.657 174.929 190.978C173.971 188.107 175.407 185.714 178.757 183.321Z" fill="black" fill-opacity="0.15"/>
</svg>
