<svg width="500" height="131" viewBox="0 0 500 131" fill="none" xmlns="http://www.w3.org/2000/svg">
<g opacity="0.2">
<path d="M185.728 112L180.8 103.296H178.688V112H174.208V89.664H182.592C184.32 89.664 185.792 89.9733 187.008 90.592C188.224 91.1893 189.131 92.0107 189.728 93.056C190.347 94.08 190.656 95.232 190.656 96.512C190.656 97.984 190.229 99.3173 189.376 100.512C188.523 101.685 187.253 102.496 185.568 102.944L190.912 112H185.728ZM178.688 99.936H182.432C183.648 99.936 184.555 99.648 185.152 99.072C185.749 98.4747 186.048 97.6533 186.048 96.608C186.048 95.584 185.749 94.7947 185.152 94.24C184.555 93.664 183.648 93.376 182.432 93.376H178.688V99.936ZM197.268 93.28V98.88H204.788V102.432H197.268V108.352H205.748V112H192.788V89.632H205.748V93.28H197.268ZM221.595 107.744H212.699L211.227 112H206.523L214.555 89.632H219.771L227.803 112H223.067L221.595 107.744ZM220.379 104.16L217.147 94.816L213.915 104.16H220.379ZM236.598 112.224C235.04 112.224 233.632 111.957 232.374 111.424C231.136 110.891 230.155 110.123 229.43 109.12C228.704 108.117 228.331 106.933 228.31 105.568H233.11C233.174 106.485 233.494 107.211 234.07 107.744C234.667 108.277 235.478 108.544 236.502 108.544C237.547 108.544 238.368 108.299 238.966 107.808C239.563 107.296 239.862 106.635 239.862 105.824C239.862 105.163 239.659 104.619 239.254 104.192C238.848 103.765 238.336 103.435 237.718 103.2C237.12 102.944 236.288 102.667 235.222 102.368C233.771 101.941 232.587 101.525 231.67 101.12C230.774 100.693 229.995 100.064 229.334 99.232C228.694 98.3787 228.374 97.248 228.374 95.84C228.374 94.5173 228.704 93.3653 229.366 92.384C230.027 91.4027 230.955 90.656 232.15 90.144C233.344 89.6107 234.71 89.344 236.246 89.344C238.55 89.344 240.416 89.9093 241.846 91.04C243.296 92.1493 244.096 93.7067 244.246 95.712H239.318C239.275 94.944 238.944 94.3147 238.326 93.824C237.728 93.312 236.928 93.056 235.926 93.056C235.051 93.056 234.347 93.28 233.814 93.728C233.302 94.176 233.046 94.8267 233.046 95.68C233.046 96.2773 233.238 96.7787 233.622 97.184C234.027 97.568 234.518 97.888 235.094 98.144C235.691 98.3787 236.523 98.656 237.59 98.976C239.04 99.4027 240.224 99.8293 241.142 100.256C242.059 100.683 242.848 101.323 243.51 102.176C244.171 103.029 244.502 104.149 244.502 105.536C244.502 106.731 244.192 107.84 243.574 108.864C242.955 109.888 242.048 110.709 240.854 111.328C239.659 111.925 238.24 112.224 236.598 112.224ZM256.833 112.224C254.743 112.224 252.823 111.733 251.074 110.752C249.324 109.771 247.938 108.416 246.913 106.688C245.889 104.939 245.377 102.965 245.377 100.768C245.377 98.592 245.889 96.64 246.913 94.912C247.938 93.1627 249.324 91.7973 251.074 90.816C252.823 89.8347 254.743 89.344 256.833 89.344C258.946 89.344 260.866 89.8347 262.594 90.816C264.343 91.7973 265.719 93.1627 266.722 94.912C267.746 96.64 268.258 98.592 268.258 100.768C268.258 102.965 267.746 104.939 266.722 106.688C265.719 108.416 264.343 109.771 262.594 110.752C260.844 111.733 258.924 112.224 256.833 112.224ZM256.833 108.224C258.178 108.224 259.362 107.925 260.385 107.328C261.41 106.709 262.21 105.835 262.786 104.704C263.362 103.573 263.649 102.261 263.649 100.768C263.649 99.2747 263.362 97.9733 262.786 96.864C262.21 95.7333 261.41 94.8693 260.385 94.272C259.362 93.6747 258.178 93.376 256.833 93.376C255.49 93.376 254.295 93.6747 253.25 94.272C252.226 94.8693 251.426 95.7333 250.85 96.864C250.273 97.9733 249.985 99.2747 249.985 100.768C249.985 102.261 250.273 103.573 250.85 104.704C251.426 105.835 252.226 106.709 253.25 107.328C254.295 107.925 255.49 108.224 256.833 108.224ZM288.775 112H284.295L274.151 96.672V112H269.671V89.632H274.151L284.295 104.992V89.632H288.775V112ZM315.634 89.664V112H311.154V97.472L305.17 112H301.778L295.762 97.472V112H291.282V89.664H296.37L303.474 106.272L310.578 89.664H315.634ZM322.623 108.448H329.983V112H318.143V89.664H322.623V108.448ZM353.8 112L351.368 109.6C349.298 111.456 346.77 112.384 343.784 112.384C342.141 112.384 340.69 112.107 339.432 111.552C338.194 110.976 337.234 110.176 336.552 109.152C335.869 108.107 335.528 106.901 335.528 105.536C335.528 104.064 335.944 102.741 336.776 101.568C337.608 100.395 338.834 99.4453 340.456 98.72C339.88 98.016 339.464 97.344 339.208 96.704C338.952 96.0427 338.824 95.3387 338.824 94.592C338.824 93.568 339.09 92.6507 339.624 91.84C340.157 91.008 340.914 90.3573 341.896 89.888C342.898 89.4187 344.061 89.184 345.384 89.184C346.728 89.184 347.88 89.44 348.84 89.952C349.8 90.464 350.514 91.1467 350.984 92C351.453 92.8533 351.656 93.8027 351.592 94.848H347.24C347.261 94.144 347.09 93.6107 346.728 93.248C346.365 92.864 345.874 92.672 345.256 92.672C344.658 92.672 344.157 92.8533 343.752 93.216C343.368 93.5573 343.176 94.0053 343.176 94.56C343.176 95.0933 343.336 95.6267 343.656 96.16C343.976 96.672 344.498 97.312 345.224 98.08L350.856 103.648C350.898 103.605 350.93 103.563 350.952 103.52C350.973 103.477 350.994 103.435 351.016 103.392L352.84 100.352H357.512L355.272 104.288C354.845 105.12 354.386 105.909 353.896 106.656L359.304 112H353.8ZM343.912 108.672C345.661 108.672 347.208 108.053 348.552 106.816L343.048 101.376C340.978 102.293 339.944 103.595 339.944 105.28C339.944 106.24 340.306 107.051 341.032 107.712C341.757 108.352 342.717 108.672 343.912 108.672ZM376.827 112L371.899 103.296H369.787V112H365.307V89.664H373.691C375.419 89.664 376.891 89.9733 378.107 90.592C379.323 91.1893 380.229 92.0107 380.827 93.056C381.445 94.08 381.755 95.232 381.755 96.512C381.755 97.984 381.328 99.3173 380.475 100.512C379.621 101.685 378.352 102.496 376.667 102.944L382.011 112H376.827ZM369.787 99.936H373.531C374.747 99.936 375.653 99.648 376.251 99.072C376.848 98.4747 377.147 97.6533 377.147 96.608C377.147 95.584 376.848 94.7947 376.251 94.24C375.653 93.664 374.747 93.376 373.531 93.376H369.787V99.936ZM388.367 93.28V98.88H395.887V102.432H388.367V108.352H396.847V112H383.887V89.632H396.847V93.28H388.367ZM406.71 112.224C405.153 112.224 403.745 111.957 402.486 111.424C401.249 110.891 400.267 110.123 399.542 109.12C398.817 108.117 398.443 106.933 398.422 105.568H403.222C403.286 106.485 403.606 107.211 404.182 107.744C404.779 108.277 405.59 108.544 406.614 108.544C407.659 108.544 408.481 108.299 409.078 107.808C409.675 107.296 409.974 106.635 409.974 105.824C409.974 105.163 409.771 104.619 409.366 104.192C408.961 103.765 408.449 103.435 407.83 103.2C407.233 102.944 406.401 102.667 405.334 102.368C403.883 101.941 402.699 101.525 401.782 101.12C400.886 100.693 400.107 100.064 399.446 99.232C398.806 98.3787 398.486 97.248 398.486 95.84C398.486 94.5173 398.817 93.3653 399.478 92.384C400.139 91.4027 401.067 90.656 402.262 90.144C403.457 89.6107 404.822 89.344 406.358 89.344C408.662 89.344 410.529 89.9093 411.958 91.04C413.409 92.1493 414.209 93.7067 414.358 95.712H409.43C409.387 94.944 409.057 94.3147 408.438 93.824C407.841 93.312 407.041 93.056 406.038 93.056C405.163 93.056 404.459 93.28 403.926 93.728C403.414 94.176 403.158 94.8267 403.158 95.68C403.158 96.2773 403.35 96.7787 403.734 97.184C404.139 97.568 404.63 97.888 405.206 98.144C405.803 98.3787 406.635 98.656 407.702 98.976C409.153 99.4027 410.337 99.8293 411.254 100.256C412.171 100.683 412.961 101.323 413.622 102.176C414.283 103.029 414.614 104.149 414.614 105.536C414.614 106.731 414.305 107.84 413.686 108.864C413.067 109.888 412.161 110.709 410.966 111.328C409.771 111.925 408.353 112.224 406.71 112.224ZM415.49 100.8C415.49 98.6027 415.981 96.64 416.962 94.912C417.965 93.1627 419.319 91.808 421.026 90.848C422.754 89.8667 424.685 89.376 426.818 89.376C429.314 89.376 431.501 90.016 433.378 91.296C435.255 92.576 436.567 94.3467 437.314 96.608H432.162C431.65 95.5413 430.925 94.7413 429.986 94.208C429.069 93.6747 428.002 93.408 426.786 93.408C425.485 93.408 424.322 93.7173 423.298 94.336C422.295 94.9333 421.506 95.7867 420.93 96.896C420.375 98.0053 420.098 99.3067 420.098 100.8C420.098 102.272 420.375 103.573 420.93 104.704C421.506 105.813 422.295 106.677 423.298 107.296C424.322 107.893 425.485 108.192 426.786 108.192C428.002 108.192 429.069 107.925 429.986 107.392C430.925 106.837 431.65 106.027 432.162 104.96H437.314C436.567 107.243 435.255 109.024 433.378 110.304C431.522 111.563 429.335 112.192 426.818 112.192C424.685 112.192 422.754 111.712 421.026 110.752C419.319 109.771 417.965 108.416 416.962 106.688C415.981 104.96 415.49 102.997 415.49 100.8ZM450.741 112L445.813 103.296H443.701V112H439.221V89.664H447.605C449.333 89.664 450.805 89.9733 452.021 90.592C453.237 91.1893 454.143 92.0107 454.741 93.056C455.359 94.08 455.669 95.232 455.669 96.512C455.669 97.984 455.242 99.3173 454.389 100.512C453.535 101.685 452.266 102.496 450.581 102.944L455.925 112H450.741ZM443.701 99.936H447.445C448.661 99.936 449.567 99.648 450.165 99.072C450.762 98.4747 451.061 97.6533 451.061 96.608C451.061 95.584 450.762 94.7947 450.165 94.24C449.567 93.664 448.661 93.376 447.445 93.376H443.701V99.936ZM462.28 89.664V112H457.8V89.664H462.28ZM481.075 96.576C481.075 97.7707 480.787 98.8907 480.211 99.936C479.656 100.981 478.771 101.824 477.555 102.464C476.36 103.104 474.845 103.424 473.011 103.424H469.267V112H464.787V89.664H473.011C474.739 89.664 476.211 89.9627 477.427 90.56C478.643 91.1573 479.549 91.9787 480.147 93.024C480.765 94.0693 481.075 95.2533 481.075 96.576ZM472.819 99.808C474.056 99.808 474.973 99.5307 475.571 98.976C476.168 98.4 476.467 97.6 476.467 96.576C476.467 94.4 475.251 93.312 472.819 93.312H469.267V99.808H472.819ZM497.536 89.664V93.28H491.584V112H487.104V93.28H481.152V89.664H497.536Z" fill="#0E0E0E"/>
</g>
<path d="M186.776 27.52C188.216 25.312 190.016 23.584 192.176 22.336C194.336 21.04 196.736 20.392 199.376 20.392V33.424H195.992C192.92 33.424 190.616 34.096 189.08 35.44C187.544 36.736 186.776 39.04 186.776 42.352V61H174.464V20.824H186.776V27.52ZM239.533 40.264C239.533 41.416 239.461 42.616 239.317 43.864H211.453C211.645 46.36 212.437 48.28 213.829 49.624C215.269 50.92 217.021 51.568 219.085 51.568C222.157 51.568 224.293 50.272 225.493 47.68H238.597C237.925 50.32 236.701 52.696 234.925 54.808C233.197 56.92 231.013 58.576 228.373 59.776C225.733 60.976 222.781 61.576 219.517 61.576C215.581 61.576 212.077 60.736 209.005 59.056C205.933 57.376 203.533 54.976 201.805 51.856C200.077 48.736 199.213 45.088 199.213 40.912C199.213 36.736 200.053 33.088 201.733 29.968C203.461 26.848 205.861 24.448 208.933 22.768C212.005 21.088 215.533 20.248 219.517 20.248C223.405 20.248 226.861 21.064 229.885 22.696C232.909 24.328 235.261 26.656 236.941 29.68C238.669 32.704 239.533 36.232 239.533 40.264ZM226.933 37.024C226.933 34.912 226.213 33.232 224.773 31.984C223.333 30.736 221.533 30.112 219.373 30.112C217.309 30.112 215.557 30.712 214.117 31.912C212.725 33.112 211.861 34.816 211.525 37.024H226.933ZM239.98 40.84C239.98 36.712 240.748 33.088 242.284 29.968C243.868 26.848 246.004 24.448 248.692 22.768C251.38 21.088 254.38 20.248 257.692 20.248C260.524 20.248 262.996 20.824 265.108 21.976C267.268 23.128 268.924 24.64 270.076 26.512V20.824H282.388V61H270.076V55.312C268.876 57.184 267.196 58.696 265.036 59.848C262.924 61 260.452 61.576 257.62 61.576C254.356 61.576 251.38 60.736 248.692 59.056C246.004 57.328 243.868 54.904 242.284 51.784C240.748 48.616 239.98 44.968 239.98 40.84ZM270.076 40.912C270.076 37.84 269.212 35.416 267.484 33.64C265.804 31.864 263.74 30.976 261.292 30.976C258.844 30.976 256.756 31.864 255.028 33.64C253.348 35.368 252.508 37.768 252.508 40.84C252.508 43.912 253.348 46.36 255.028 48.184C256.756 49.96 258.844 50.848 261.292 50.848C263.74 50.848 265.804 49.96 267.484 48.184C269.212 46.408 270.076 43.984 270.076 40.912ZM304.039 61.576C300.535 61.576 297.415 60.976 294.679 59.776C291.943 58.576 289.783 56.944 288.199 54.88C286.615 52.768 285.727 50.416 285.535 47.824H297.703C297.847 49.216 298.495 50.344 299.647 51.208C300.799 52.072 302.215 52.504 303.895 52.504C305.431 52.504 306.607 52.216 307.423 51.64C308.287 51.016 308.719 50.224 308.719 49.264C308.719 48.112 308.119 47.272 306.919 46.744C305.719 46.168 303.775 45.544 301.087 44.872C298.207 44.2 295.807 43.504 293.887 42.784C291.967 42.016 290.311 40.84 288.919 39.256C287.527 37.624 286.831 35.44 286.831 32.704C286.831 30.4 287.455 28.312 288.703 26.44C289.999 24.52 291.871 23.008 294.319 21.904C296.815 20.8 299.767 20.248 303.175 20.248C308.215 20.248 312.175 21.496 315.055 23.992C317.983 26.488 319.663 29.8 320.095 33.928H308.719C308.527 32.536 307.903 31.432 306.847 30.616C305.839 29.8 304.495 29.392 302.815 29.392C301.375 29.392 300.271 29.68 299.503 30.256C298.735 30.784 298.351 31.528 298.351 32.488C298.351 33.64 298.951 34.504 300.151 35.08C301.399 35.656 303.319 36.232 305.911 36.808C308.887 37.576 311.311 38.344 313.183 39.112C315.055 39.832 316.687 41.032 318.079 42.712C319.519 44.344 320.263 46.552 320.311 49.336C320.311 51.688 319.639 53.8 318.295 55.672C316.999 57.496 315.103 58.936 312.607 59.992C310.159 61.048 307.303 61.576 304.039 61.576ZM342.532 61.576C338.596 61.576 335.044 60.736 331.876 59.056C328.756 57.376 326.284 54.976 324.46 51.856C322.684 48.736 321.796 45.088 321.796 40.912C321.796 36.784 322.708 33.16 324.532 30.04C326.356 26.872 328.852 24.448 332.02 22.768C335.188 21.088 338.74 20.248 342.676 20.248C346.612 20.248 350.164 21.088 353.332 22.768C356.5 24.448 358.996 26.872 360.82 30.04C362.644 33.16 363.556 36.784 363.556 40.912C363.556 45.04 362.62 48.688 360.748 51.856C358.924 54.976 356.404 57.376 353.188 59.056C350.02 60.736 346.468 61.576 342.532 61.576ZM342.532 50.92C344.884 50.92 346.876 50.056 348.508 48.328C350.188 46.6 351.028 44.128 351.028 40.912C351.028 37.696 350.212 35.224 348.58 33.496C346.996 31.768 345.028 30.904 342.676 30.904C340.276 30.904 338.284 31.768 336.7 33.496C335.116 35.176 334.324 37.648 334.324 40.912C334.324 44.128 335.092 46.6 336.628 48.328C338.212 50.056 340.18 50.92 342.532 50.92ZM390.967 20.392C395.671 20.392 399.415 21.928 402.199 25C405.031 28.024 406.447 32.2 406.447 37.528V61H394.207V39.184C394.207 36.496 393.511 34.408 392.119 32.92C390.727 31.432 388.855 30.688 386.503 30.688C384.151 30.688 382.279 31.432 380.887 32.92C379.495 34.408 378.799 36.496 378.799 39.184V61H366.487V20.824H378.799V26.152C380.047 24.376 381.727 22.984 383.839 21.976C385.951 20.92 388.327 20.392 390.967 20.392Z" fill="#0E0E0E"/>
<path d="M423.715 26.512C424.867 24.64 426.523 23.128 428.683 21.976C430.843 20.824 433.315 20.248 436.099 20.248C439.411 20.248 442.411 21.088 445.099 22.768C447.787 24.448 449.899 26.848 451.435 29.968C453.019 33.088 453.811 36.712 453.811 40.84C453.811 44.968 453.019 48.616 451.435 51.784C449.899 54.904 447.787 57.328 445.099 59.056C442.411 60.736 439.411 61.576 436.099 61.576C433.267 61.576 430.795 61.024 428.683 59.92C426.571 58.768 424.915 57.256 423.715 55.384V61H411.403V7.72H423.715V26.512ZM441.283 40.84C441.283 37.768 440.419 35.368 438.691 33.64C437.011 31.864 434.923 30.976 432.427 30.976C429.979 30.976 427.891 31.864 426.163 33.64C424.483 35.416 423.643 37.84 423.643 40.912C423.643 43.984 424.483 46.408 426.163 48.184C427.891 49.96 429.979 50.848 432.427 50.848C434.875 50.848 436.963 49.96 438.691 48.184C440.419 46.36 441.283 43.912 441.283 40.84ZM468.982 27.52C470.422 25.312 472.222 23.584 474.382 22.336C476.542 21.04 478.942 20.392 481.582 20.392V33.424H478.198C475.126 33.424 472.822 34.096 471.286 35.44C469.75 36.736 468.982 39.04 468.982 42.352V61H456.67V20.824H468.982V27.52ZM489.627 61.576C487.467 61.576 485.691 60.952 484.299 59.704C482.955 58.408 482.283 56.824 482.283 54.952C482.283 53.032 482.955 51.424 484.299 50.128C485.691 48.832 487.467 48.184 489.627 48.184C491.739 48.184 493.467 48.832 494.811 50.128C496.203 51.424 496.899 53.032 496.899 54.952C496.899 56.824 496.203 58.408 494.811 59.704C493.467 60.952 491.739 61.576 489.627 61.576Z" fill="#DD1350"/>
<path d="M0.799831 87.776L6.72363 126.358C7.06043 128.552 8.94764 130.171 11.1669 130.171C13.6497 130.171 15.6623 128.159 15.6623 125.676V102.981C15.6623 100.71 17.0295 98.695 19.0095 97.5825C26.6767 93.2747 29.8551 87.3388 31.3405 74.8416C31.6949 71.8595 34.1671 69.5361 37.1701 69.5361H68.7244C70.9623 69.5361 72.9964 70.8361 73.9362 72.8671L98.8156 126.632C99.4712 128.048 100.89 128.955 102.451 128.955C105.047 128.955 106.957 126.525 106.344 124.003L94.6895 76.0588C93.8566 72.6324 96.3187 69.4252 99.7436 68.5866C105.051 67.2869 108.998 64.3456 113.21 56.3639C114.879 53.2005 115.553 49.6203 115.553 46.0435V19.8463C115.7 16.8983 116.223 15.1926 118.283 13.3485C119.177 12.5478 120.375 12.2017 121.576 12.2017H125.937C127.699 12.2017 129.291 13.6724 130.795 14.5908C132.641 15.7182 134 13.1685 134 11.0055V6.63917C134 6.17945 133.948 5.71931 133.826 5.27627C132.944 2.09397 131.789 0.998324 129.517 0.258778C129.032 0.100808 128.521 0.0399199 128.01 0.0399199H92.0597C94.351 3.25494 96.4466 3.75882 101.805 2.1248V33.2014C101.805 33.9056 101.682 34.6088 101.404 35.2559C99.4119 39.8945 97.3286 40.6185 93.4079 39.2889C92.513 38.9854 91.7429 38.4045 91.1374 37.679L66.826 8.5532C56.841 -2.98324 50.7353 -2.61463 39.3094 8.24051C39.0942 8.44495 38.8914 8.67175 38.7115 8.9078L7.00075 50.5019C6.51556 51.1383 6.16874 51.8691 5.98253 52.6474L4.55085 58.6311C4.04415 60.7488 6.1277 62.5623 8.15531 61.7683C9.92325 61.076 11.8338 62.3796 11.8338 64.2783V71.4145C11.8338 72.459 11.5547 73.4907 10.9893 74.3688C8.88482 77.6369 7.08629 79.5159 4.92876 80.7506C2.34141 82.2313 0.347429 84.8294 0.799831 87.776Z" fill="#DD1350"/>
<path d="M30.6828 125.978L23.959 100.962C23.3604 98.7351 24.1777 96.3885 25.9052 94.8604C32.5759 88.9594 34.8343 83.769 35.5525 74.5547C35.6314 73.5412 36.4675 72.7428 37.4841 72.7428H45.5394C46.7417 72.7428 47.6487 73.8413 47.3848 75.0142C45.1343 85.0149 41.6426 89.5512 34.1271 95.915L39.2055 124.067C39.6892 126.749 37.6286 129.214 34.904 129.214C32.9269 129.214 31.196 127.887 30.6828 125.978Z" fill="#DD1350"/>
<path d="M63.0795 124.518L71.3369 79.7055C71.6767 77.8618 74.1897 77.5548 74.9633 79.2626L81.3374 93.3345C81.963 94.7155 82.0171 96.288 81.4878 97.7087L70.7157 126.626C70.136 128.182 68.6503 129.214 66.9898 129.214C64.5053 129.214 62.6293 126.961 63.0795 124.518Z" fill="#DD1350"/>
<path d="M27.7571 93.3214C33.0842 87.5503 35.117 82.6027 35.3833 74.6589C35.4188 73.6023 36.2712 72.7428 37.3284 72.7428H43.0714C37.2165 85.7277 32.8159 91.6572 23.9285 100.979C22.9715 98.1071 24.407 95.7142 27.7571 93.3214Z" fill="black" fill-opacity="0.15"/>
</svg>
