<svg width="662" height="163" viewBox="0 0 662 163" fill="none" xmlns="http://www.w3.org/2000/svg">
<path d="M47.7315 162.195H41.1005C40.2722 162.195 39.5356 161.678 39.2674 160.91L27.3656 126.809C27.2095 126.362 27.2292 125.873 27.421 125.439L38.8089 99.6802C39.284 98.6054 40.6289 98.2044 41.6341 98.8379L51.7165 105.191C52.5891 105.741 52.865 106.867 52.3423 107.745L40.1473 128.237C39.8724 128.699 39.8089 129.253 39.9725 129.763L49.5797 159.726C49.972 160.95 49.0398 162.195 47.7315 162.195Z" fill="#FFDD65"/>
<path d="M12.1349 125.302V161.553L2.44811 160.603C2.41458 151.873 1.97032 146.883 0.510758 137.816C-0.338578 129.233 -0.202179 125.187 1.47943 119.775C6.74653 111.758 9.05884 106.538 12.1349 96.0379C12.1349 91.8592 9.49717 88.0388 8.51899 83.9762C8.34864 83.2687 8.26016 82.5375 8.26016 81.7955V76.5118C8.26016 74.3515 8.58742 72.1934 9.38285 70.1787C12.5491 62.1592 16.5466 57.4873 25.6604 52.4821C28.2157 51.0788 30.6756 49.4828 32.7916 47.4978C35.3277 44.6674 37.3202 42.1544 39.5707 39.6621C43.2788 35.5557 46.599 30.6651 51.5792 28.2547C52.5469 27.7864 53.5658 27.5395 54.6272 27.6369C57.9851 27.9454 59.5476 31.0042 61.4572 33.7292C64.6934 37.5079 67.1236 40.5999 71.2241 44.7653C72.5198 46.1396 74.7318 46.1514 76.0427 44.791L76.0674 44.7653C80.3852 40.1005 82.9787 36.9398 86.7489 33.2758C88.6838 30.8584 91.1754 28.0523 94.3029 27.8439C97.9918 27.5981 100.151 31.178 102.04 34.3114V34.3114C103.732 37.5675 105.836 40.4013 108.353 43.0717C110.742 45.6067 112.473 47.5856 115.783 51.4117C118.655 47.2529 119.869 44.6534 120.626 39.0683C121.188 31.6217 120.873 27.2015 119.983 20.5429C119.804 19.2014 118.902 18.064 117.638 17.5615C117.443 17.4841 117.232 17.4592 117.023 17.4608C113.073 17.4902 110.468 16.7382 107.469 14.9875C107.281 14.8777 107.078 14.7918 106.862 14.764C105.681 14.6115 104.481 15.0157 103.63 15.8495C102.751 16.7116 101.481 17.1619 100.285 16.8277C98.4299 16.3095 97.0014 15.5204 95.7629 13.6526C95.3461 13.0239 95.4178 12.2049 95.8571 11.5918L96.5 10.6945C95.5188 6.76954 96.9446 5.25166 101.829 3.76274C102.016 3.70589 102.194 3.61966 102.365 3.52634C102.952 3.20627 103.62 3.05204 104.294 3.06887C104.413 3.07185 104.533 3.09265 104.649 3.12176C108.733 4.14711 111.091 4.25843 115.136 3.85353C115.25 3.8421 115.366 3.84129 115.481 3.84431C116.353 3.86724 117.209 3.60102 117.909 3.08608L119.772 1.71699C120.331 1.30573 120.994 1.04806 121.69 0.984625C125.185 0.666246 128.003 -0.064257 131.127 0.288598C135.897 1.75029 137.493 3.85717 139.65 8.19906C139.888 8.67943 140 9.21152 140 9.74581V48.0777C140 48.4001 139.956 48.7284 139.873 49.0402C131.793 79.2164 121.361 89.9145 94.4723 99.8359L93.5036 160.603C89.7213 161.829 87.5987 161.934 83.8168 160.603C82.5084 138.1 79.9906 125.364 76.0674 102.684C59.0248 101.437 50.6224 97.9078 37.3204 87.4925C30.776 103.453 25.7786 111.662 13.4599 122.429C12.6235 123.16 12.1349 124.204 12.1349 125.302Z" fill="#FFDD65"/>
<path d="M123.227 94.9655L113.663 98.9833C112.89 99.308 112.419 100.084 112.497 100.905L117.641 155.081C117.734 156.057 118.57 156.804 119.57 156.804H123.99C125.06 156.804 125.928 155.953 125.928 154.905V96.7109C125.928 95.3476 124.506 94.4284 123.227 94.9655Z" fill="#FFDD65"/>
<path d="M135 0.194523L132.5 1.19451L136.5 4.69451L137 1.19452C137 0.194519 136.279 -0.301693 135 0.194523Z" fill="#FFDD65"/>
<path d="M227.3 69.5C229.3 66.4333 231.8 64.0333 234.8 62.3C237.8 60.5 241.133 59.6 244.8 59.6V77.7H240.1C235.833 77.7 232.633 78.6333 230.5 80.5C228.367 82.3 227.3 85.5 227.3 90.1V116H210.2V60.2H227.3V69.5ZM300.573 87.2C300.573 88.8 300.473 90.4667 300.273 92.2H261.573C261.84 95.6667 262.94 98.3333 264.873 100.2C266.873 102 269.307 102.9 272.173 102.9C276.44 102.9 279.407 101.1 281.073 97.5H299.273C298.34 101.167 296.64 104.467 294.173 107.4C291.773 110.333 288.74 112.633 285.073 114.3C281.407 115.967 277.307 116.8 272.773 116.8C267.307 116.8 262.44 115.633 258.173 113.3C253.907 110.967 250.573 107.633 248.173 103.3C245.773 98.9667 244.573 93.9 244.573 88.1C244.573 82.3 245.74 77.2333 248.073 72.9C250.473 68.5667 253.807 65.2333 258.073 62.9C262.34 60.5667 267.24 59.4 272.773 59.4C278.173 59.4 282.973 60.5333 287.173 62.8C291.373 65.0667 294.64 68.3 296.973 72.5C299.373 76.7 300.573 81.6 300.573 87.2ZM283.073 82.7C283.073 79.7667 282.073 77.4333 280.073 75.7C278.073 73.9667 275.573 73.1 272.573 73.1C269.707 73.1 267.273 73.9333 265.273 75.6C263.34 77.2667 262.14 79.6333 261.673 82.7H283.073ZM301.195 88C301.195 82.2667 302.261 77.2333 304.395 72.9C306.595 68.5667 309.561 65.2333 313.295 62.9C317.028 60.5667 321.195 59.4 325.795 59.4C329.728 59.4 333.161 60.2 336.095 61.8C339.095 63.4 341.395 65.5 342.995 68.1V60.2H360.095V116H342.995V108.1C341.328 110.7 338.995 112.8 335.995 114.4C333.061 116 329.628 116.8 325.695 116.8C321.161 116.8 317.028 115.633 313.295 113.3C309.561 110.9 306.595 107.533 304.395 103.2C302.261 98.8 301.195 93.7333 301.195 88ZM342.995 88.1C342.995 83.8333 341.795 80.4667 339.395 78C337.061 75.5333 334.195 74.3 330.795 74.3C327.395 74.3 324.495 75.5333 322.095 78C319.761 80.4 318.595 83.7333 318.595 88C318.595 92.2667 319.761 95.6667 322.095 98.2C324.495 100.667 327.395 101.9 330.795 101.9C334.195 101.9 337.061 100.667 339.395 98.2C341.795 95.7333 342.995 92.3667 342.995 88.1ZM390.166 116.8C385.299 116.8 380.966 115.967 377.166 114.3C373.366 112.633 370.366 110.367 368.166 107.5C365.966 104.567 364.732 101.3 364.466 97.7H381.366C381.566 99.6333 382.466 101.2 384.066 102.4C385.666 103.6 387.632 104.2 389.966 104.2C392.099 104.2 393.732 103.8 394.866 103C396.066 102.133 396.666 101.033 396.666 99.7C396.666 98.1 395.832 96.9333 394.166 96.2C392.499 95.4 389.799 94.5333 386.066 93.6C382.066 92.6667 378.732 91.7 376.066 90.7C373.399 89.6333 371.099 88 369.166 85.8C367.232 83.5333 366.266 80.5 366.266 76.7C366.266 73.5 367.132 70.6 368.866 68C370.666 65.3333 373.266 63.2333 376.666 61.7C380.132 60.1667 384.232 59.4 388.966 59.4C395.966 59.4 401.466 61.1333 405.466 64.6C409.532 68.0667 411.866 72.6667 412.466 78.4H396.666C396.399 76.4667 395.532 74.9333 394.066 73.8C392.666 72.6667 390.799 72.1 388.466 72.1C386.466 72.1 384.932 72.5 383.866 73.3C382.799 74.0333 382.266 75.0667 382.266 76.4C382.266 78 383.099 79.2 384.766 80C386.499 80.8 389.166 81.6 392.766 82.4C396.899 83.4667 400.266 84.5333 402.866 85.6C405.466 86.6 407.732 88.2667 409.666 90.6C411.666 92.8667 412.699 95.9333 412.766 99.8C412.766 103.067 411.832 106 409.966 108.6C408.166 111.133 405.532 113.133 402.066 114.6C398.666 116.067 394.699 116.8 390.166 116.8ZM443.627 116.8C438.161 116.8 433.227 115.633 428.827 113.3C424.494 110.967 421.061 107.633 418.527 103.3C416.061 98.9667 414.827 93.9 414.827 88.1C414.827 82.3667 416.094 77.3333 418.627 73C421.161 68.6 424.627 65.2333 429.027 62.9C433.427 60.5667 438.361 59.4 443.827 59.4C449.294 59.4 454.227 60.5667 458.627 62.9C463.027 65.2333 466.494 68.6 469.027 73C471.561 77.3333 472.827 82.3667 472.827 88.1C472.827 93.8333 471.527 98.9 468.927 103.3C466.394 107.633 462.894 110.967 458.427 113.3C454.027 115.633 449.094 116.8 443.627 116.8ZM443.627 102C446.894 102 449.661 100.8 451.927 98.4C454.261 96 455.427 92.5667 455.427 88.1C455.427 83.6333 454.294 80.2 452.027 77.8C449.827 75.4 447.094 74.2 443.827 74.2C440.494 74.2 437.727 75.4 435.527 77.8C433.327 80.1333 432.227 83.5667 432.227 88.1C432.227 92.5667 433.294 96 435.427 98.4C437.627 100.8 440.361 102 443.627 102ZM510.899 59.6C517.433 59.6 522.633 61.7333 526.499 66C530.433 70.2 532.399 76 532.399 83.4V116H515.399V85.7C515.399 81.9667 514.433 79.0667 512.499 77C510.566 74.9333 507.966 73.9 504.699 73.9C501.433 73.9 498.833 74.9333 496.899 77C494.966 79.0667 493.999 81.9667 493.999 85.7V116H476.899V60.2H493.999V67.6C495.733 65.1333 498.066 63.2 500.999 61.8C503.933 60.3333 507.233 59.6 510.899 59.6Z" fill="#01071A"/>
<path d="M556.382 68.1C557.982 65.5 560.282 63.4 563.282 61.8C566.282 60.2 569.715 59.4 573.582 59.4C578.182 59.4 582.349 60.5667 586.082 62.9C589.815 65.2333 592.749 68.5667 594.882 72.9C597.082 77.2333 598.182 82.2667 598.182 88C598.182 93.7333 597.082 98.8 594.882 103.2C592.749 107.533 589.815 110.9 586.082 113.3C582.349 115.633 578.182 116.8 573.582 116.8C569.649 116.8 566.215 116.033 563.282 114.5C560.349 112.9 558.049 110.8 556.382 108.2V116H539.282V42H556.382V68.1ZM580.782 88C580.782 83.7333 579.582 80.4 577.182 78C574.849 75.5333 571.949 74.3 568.482 74.3C565.082 74.3 562.182 75.5333 559.782 78C557.449 80.4667 556.282 83.8333 556.282 88.1C556.282 92.3667 557.449 95.7333 559.782 98.2C562.182 100.667 565.082 101.9 568.482 101.9C571.882 101.9 574.782 100.667 577.182 98.2C579.582 95.6667 580.782 92.2667 580.782 88ZM619.253 69.5C621.253 66.4333 623.753 64.0333 626.753 62.3C629.753 60.5 633.086 59.6 636.753 59.6V77.7H632.053C627.786 77.7 624.586 78.6333 622.453 80.5C620.32 82.3 619.253 85.5 619.253 90.1V116H602.153V60.2H619.253V69.5ZM647.927 116.8C644.927 116.8 642.46 115.933 640.527 114.2C638.66 112.4 637.727 110.2 637.727 107.6C637.727 104.933 638.66 102.7 640.527 100.9C642.46 99.1 644.927 98.2 647.927 98.2C650.86 98.2 653.26 99.1 655.127 100.9C657.06 102.7 658.027 104.933 658.027 107.6C658.027 110.2 657.06 112.4 655.127 114.2C653.26 115.933 650.86 116.8 647.927 116.8Z" fill="#FFDC62"/>
</svg>
