<svg width="2610" height="1020" viewBox="0 0 2610 1020" fill="none" xmlns="http://www.w3.org/2000/svg">
<rect width="2610" height="1019.78" rx="15.7969" fill="#0E0E0E"/>
<path opacity="0.5" d="M810.207 647.588V584.525H840.388C845.913 584.525 850.358 586.087 853.721 589.21C857.144 592.273 858.856 596.117 858.856 600.741C858.856 605.186 857.355 608.789 854.352 611.552C852.97 612.753 851.469 613.654 849.847 614.255V614.705C851.949 615.126 853.901 615.967 855.703 617.228C859.607 620.051 861.559 624.165 861.559 629.57C861.559 634.916 859.667 639.27 855.883 642.633C852.099 645.937 846.784 647.588 839.937 647.588H810.207ZM818.315 611.102H839.937C843.301 611.102 845.943 610.231 847.865 608.489C849.787 606.687 850.748 604.405 850.748 601.642C850.748 598.879 849.787 596.627 847.865 594.885C845.943 593.084 843.301 592.183 839.937 592.183H818.315V611.102ZM818.315 639.931H839.937C844.261 639.931 847.595 638.97 849.937 637.048C852.28 635.126 853.451 632.633 853.451 629.57C853.451 626.267 852.28 623.654 849.937 621.732C847.655 619.75 844.322 618.759 839.937 618.759H818.315V639.931ZM870.586 647.588V584.525H897.613C904.64 584.525 910.225 586.387 914.37 590.111C918.514 593.834 920.586 598.579 920.586 604.345C920.586 609.09 919.114 613.144 916.171 616.507C913.288 619.871 909.204 622.123 903.919 623.264L920.135 647.588H910.676L895.36 624.165H878.694V647.588H870.586ZM878.694 616.507H897.613C902.478 616.507 906.171 615.426 908.694 613.264C911.216 611.042 912.478 608.069 912.478 604.345C912.478 600.621 911.216 597.678 908.694 595.516C906.171 593.294 902.478 592.183 897.613 592.183H878.694V616.507ZM924.151 647.588L940.367 584.525H965.142L981.358 647.588H973.25L968.295 629.12H937.214L932.259 647.588H924.151ZM939.016 621.462H966.493L958.836 592.183H946.673L939.016 621.462ZM983.142 647.588V639.931L1021.43 592.633V592.183H984.494V584.525H1031.79V592.183L993.503 639.48V639.931H1032.24V647.588H983.142ZM1039.49 647.588V584.525H1047.6V647.588H1039.49ZM1059.31 647.588V584.525H1067.42V639.931H1100.3V647.588H1059.31ZM1105.26 647.588V584.525H1113.37V647.588H1105.26ZM1119.68 647.588L1135.89 584.525H1160.67L1176.88 647.588H1168.77L1163.82 629.12H1132.74L1127.78 647.588H1119.68ZM1134.54 621.462H1162.02L1154.36 592.183H1142.2L1134.54 621.462ZM1183.17 647.588V584.525H1194.88L1225.87 637.678H1226.05L1225.96 636.778V584.525H1234.07V647.588H1222.36L1191.37 594.435H1191.19L1191.28 595.336V647.498L1183.17 647.588ZM1274.42 640.021C1268.24 633.714 1265.14 625.726 1265.14 616.057C1265.14 606.387 1268.24 598.429 1274.42 592.183C1280.67 585.876 1288.54 582.723 1298.03 582.723C1308.66 582.723 1317.04 586.567 1323.16 594.255C1325.86 597.558 1327.85 601.372 1329.11 605.696H1321C1319.74 602.693 1318.15 600.141 1316.23 598.039C1311.48 592.933 1305.41 590.381 1298.03 590.381C1290.76 590.381 1284.81 592.753 1280.19 597.498C1275.56 602.243 1273.25 608.429 1273.25 616.057C1273.25 623.684 1275.56 629.871 1280.19 634.615C1284.81 639.36 1290.76 641.732 1298.03 641.732C1305.53 641.732 1311.75 638.97 1316.68 633.444C1318.66 631.162 1320.25 628.369 1321.45 625.066H1329.56C1328.12 629.75 1326.01 633.805 1323.25 637.228C1316.95 645.336 1308.54 649.39 1298.03 649.39C1288.54 649.39 1280.67 646.267 1274.42 640.021ZM1343.78 640.021C1337.59 633.714 1334.5 625.726 1334.5 616.057C1334.5 606.387 1337.59 598.429 1343.78 592.183C1350.02 585.876 1357.89 582.723 1367.38 582.723C1376.87 582.723 1384.71 585.876 1390.89 592.183C1397.14 598.429 1400.26 606.387 1400.26 616.057C1400.26 625.726 1397.14 633.714 1390.89 640.021C1384.71 646.267 1376.87 649.39 1367.38 649.39C1357.89 649.39 1350.02 646.267 1343.78 640.021ZM1349.54 597.498C1344.92 602.243 1342.6 608.429 1342.6 616.057C1342.6 623.684 1344.92 629.871 1349.54 634.615C1354.17 639.36 1360.11 641.732 1367.38 641.732C1374.65 641.732 1380.59 639.36 1385.22 634.615C1389.84 629.871 1392.15 623.684 1392.15 616.057C1392.15 608.429 1389.84 602.243 1385.22 597.498C1380.59 592.753 1374.65 590.381 1367.38 590.381C1360.11 590.381 1354.17 592.753 1349.54 597.498ZM1408.85 647.588V584.525H1421.91L1440.83 625.066H1444.88L1463.8 584.525H1476.87V647.588H1468.76V593.534L1468.85 592.633H1468.67L1450.29 632.273H1435.43L1417.05 592.633H1416.87L1416.96 593.534V647.588H1408.85ZM1488.58 647.588V584.525H1501.65L1520.56 625.066H1524.62L1543.54 584.525H1556.6V647.588H1548.49V593.534L1548.58 592.633H1548.4L1530.02 632.273H1515.16L1496.78 592.633H1496.6L1496.69 593.534V647.588H1488.58ZM1567.87 623.714V584.525H1575.97V623.714C1575.97 629.24 1577.51 633.624 1580.57 636.868C1583.63 640.111 1587.66 641.732 1592.64 641.732C1597.63 641.732 1601.65 640.111 1604.71 636.868C1607.78 633.624 1609.31 629.24 1609.31 623.714V584.525H1617.42V623.714C1617.42 631.522 1615.13 637.769 1610.57 642.453C1606.06 647.078 1600.09 649.39 1592.64 649.39C1585.19 649.39 1579.19 647.078 1574.62 642.453C1570.12 637.769 1567.87 631.522 1567.87 623.714ZM1628.69 647.588V584.525H1640.41L1671.4 637.678H1671.58L1671.49 636.778V584.525H1679.6V647.588H1667.88L1636.89 594.435H1636.71L1636.8 595.336V647.498L1628.69 647.588ZM1691.27 647.588V584.525H1699.38V647.588H1691.27ZM1704.79 592.183V584.525H1756.14V592.183H1734.52V647.588H1726.41V592.183H1704.79ZM1754.77 584.525H1764.23L1782.7 615.156H1783.6L1802.07 584.525H1811.53L1787.2 624.615V647.588H1779.1V624.615L1754.77 584.525Z" fill="white"/>
<path d="M803 503.316V406.018H829.709V420.326H830.663C831.808 417.274 833.525 414.603 835.814 412.313C841.029 406.844 847.579 404.11 855.465 404.11H866.911V429.865H852.603C845.353 429.865 839.693 431.837 835.623 435.779C831.681 439.595 829.709 444.937 829.709 451.805V503.316H803Z" fill="white"/>
<path d="M878.22 491.296C868.172 481.249 863.148 469.039 863.148 454.667C863.148 440.295 868.172 428.148 878.22 418.228C888.394 408.18 900.859 403.156 915.612 403.156C930.62 403.156 942.958 408.116 952.624 418.037C962.29 427.957 967.123 440.167 967.123 454.667V460.39H890.811C891.829 466.749 894.69 472.155 899.396 476.606C904.102 481.058 909.507 483.284 915.612 483.284C922.353 483.284 928.14 481.376 932.973 477.56C934.881 475.907 936.407 473.999 937.552 471.837H966.169C964.007 478.323 960.827 484.047 956.63 489.007C946.455 500.454 932.783 506.177 915.612 506.177C900.859 506.177 888.394 501.217 878.22 491.296ZM891.765 444.174H938.506C937.489 439.086 934.881 434.826 930.684 431.391C926.614 427.83 921.59 426.05 915.612 426.05C909.635 426.05 904.547 427.767 900.35 431.201C896.153 434.635 893.291 438.959 891.765 444.174Z" fill="white"/>
<path d="M965.141 471.837H992.804C993.694 474.126 995.093 476.225 997.001 478.133C1001.07 482.203 1006.67 484.238 1013.79 484.238C1024.6 484.238 1030.01 481.058 1030.01 474.699C1030.01 473.681 1029.75 472.791 1029.24 472.028C1028.73 471.137 1027.84 470.374 1026.57 469.738C1025.3 468.975 1024.09 468.339 1022.95 467.83C1021.8 467.322 1020.09 466.813 1017.8 466.304C1015.63 465.668 1013.85 465.223 1012.45 464.969C1011.18 464.714 1009.08 464.269 1006.16 463.633C1003.36 462.997 1001.33 462.552 1000.05 462.298C979.958 457.974 969.91 448.117 969.91 432.727C969.91 424.587 973.535 417.655 980.785 411.932C988.162 406.081 998.209 403.156 1010.93 403.156C1027.97 403.156 1040.75 408.434 1049.27 418.991C1052.96 423.569 1055.44 428.784 1056.72 434.635H1030.01C1029.12 432.727 1027.97 431.137 1026.57 429.865C1022.63 426.686 1017.41 425.096 1010.93 425.096C1006.35 425.096 1002.98 425.859 1000.82 427.385C998.654 428.784 997.573 430.565 997.573 432.727C997.573 433.49 997.701 434.253 997.955 435.016C998.336 435.652 998.909 436.288 999.672 436.924C1000.44 437.433 1001.2 437.942 1001.96 438.45C1002.72 438.832 1003.81 439.277 1005.2 439.786C1006.6 440.167 1007.81 440.549 1008.83 440.93C1009.97 441.312 1011.44 441.694 1013.22 442.075C1015 442.457 1016.52 442.775 1017.8 443.029C1019.07 443.283 1020.72 443.665 1022.76 444.174C1024.79 444.555 1026.44 444.873 1027.72 445.128C1047.68 449.579 1057.67 459.436 1057.67 474.699C1057.67 483.22 1053.73 490.597 1045.84 496.829C1037.96 503.061 1027.27 506.177 1013.79 506.177C995.729 506.177 982.375 500.454 973.726 489.007C969.783 483.792 966.921 478.069 965.141 471.837Z" fill="white"/>
<path d="M1070.89 491.296C1060.84 481.249 1055.81 469.039 1055.81 454.667C1055.81 440.295 1060.84 428.148 1070.89 418.228C1081.06 408.18 1093.52 403.156 1108.28 403.156C1125.96 403.156 1139.44 409.515 1148.72 422.234C1152.92 427.703 1155.97 434.062 1157.88 441.312H1130.22C1129.07 438.514 1127.55 435.97 1125.64 433.681C1120.81 428.593 1115.02 426.05 1108.28 426.05C1101.54 426.05 1095.69 428.721 1090.73 434.062C1085.89 439.404 1083.48 446.272 1083.48 454.667C1083.48 463.061 1085.89 469.929 1090.73 475.271C1095.69 480.613 1101.54 483.284 1108.28 483.284C1115.02 483.284 1120.81 480.74 1125.64 475.652C1127.55 473.363 1129.07 470.819 1130.22 468.021H1157.88C1156.1 475.398 1153.17 481.757 1149.1 487.099C1139.82 499.818 1126.21 506.177 1108.28 506.177C1093.52 506.177 1081.06 501.217 1070.89 491.296Z" fill="white"/>
<path d="M1161.69 503.316V406.018H1188.4V420.326H1189.35C1190.5 417.274 1192.21 414.603 1194.5 412.313C1199.72 406.844 1206.27 404.11 1214.15 404.11H1225.6V429.865H1211.29C1204.04 429.865 1198.38 431.837 1194.31 435.779C1190.37 439.595 1188.4 444.937 1188.4 451.805V503.316H1161.69Z" fill="white"/>
<path d="M1230.04 389.42C1227.12 386.495 1225.65 383.124 1225.65 379.309C1225.65 375.493 1227.12 372.186 1230.04 369.388C1233.09 366.463 1236.72 365 1240.91 365C1245.11 365 1248.67 366.463 1251.6 369.388C1254.65 372.186 1256.18 375.493 1256.18 379.309C1256.18 383.124 1254.65 386.495 1251.6 389.42C1248.67 392.218 1245.11 393.617 1240.91 393.617C1236.72 393.617 1233.09 392.218 1230.04 389.42ZM1227.56 503.316V406.018H1254.27V503.316H1227.56Z" fill="white"/>
<path d="M1263.81 539.564V406.018H1290.52V418.418H1291.47C1293.51 415.748 1295.99 413.204 1298.91 410.787C1305.78 405.7 1313.47 403.156 1322 403.156C1334.72 403.156 1345.34 407.926 1353.86 417.465C1362.51 426.876 1366.83 439.277 1366.83 454.667C1366.83 470.056 1362.51 482.521 1353.86 492.06C1345.34 501.471 1334.72 506.177 1322 506.177C1313.47 506.177 1305.78 503.634 1298.91 498.546C1295.99 496.13 1293.51 493.586 1291.47 490.915H1290.52V539.564H1263.81ZM1297.39 433.681C1292.81 438.641 1290.52 445.636 1290.52 454.667C1290.52 463.697 1292.81 470.756 1297.39 475.843C1301.96 480.804 1307.94 483.284 1315.32 483.284C1322.31 483.284 1328.04 480.74 1332.49 475.652C1336.94 470.565 1339.17 463.57 1339.17 454.667C1339.17 445.764 1336.94 438.768 1332.49 433.681C1328.04 428.593 1322.31 426.05 1315.32 426.05C1307.94 426.05 1301.96 428.593 1297.39 433.681Z" fill="white"/>
<path d="M1363.97 428.911V406.018H1376.37V385.032H1403.08V406.018H1430.55V428.911H1403.08V480.422H1431.69V503.316H1376.37V428.911H1363.97Z" fill="white"/>
<path d="M1467.09 468.714C1465.21 467.851 1464 465.969 1464 463.896V444.945C1464 442.872 1465.21 440.989 1467.09 440.126L1543.17 405.294V428.188L1487.85 453.562V455.279L1543.17 480.652V503.546L1467.09 468.714Z" fill="#DD1350"/>
<path d="M1553.72 503.546V370H1580.43V418.649H1581.38C1583.42 415.978 1585.9 413.434 1588.82 411.018C1595.69 405.93 1603.39 403.387 1611.91 403.387C1624.63 403.387 1635.25 408.156 1643.77 417.695C1652.42 427.107 1656.74 439.508 1656.74 454.897C1656.74 470.287 1652.42 482.751 1643.77 492.29C1635.25 501.702 1624.63 506.408 1611.91 506.408C1603.39 506.408 1595.69 503.864 1588.82 498.777C1585.9 496.36 1583.42 493.816 1581.38 491.145H1580.43V503.546H1553.72ZM1587.3 433.911C1582.72 438.872 1580.43 445.867 1580.43 454.897C1580.43 463.927 1582.72 470.986 1587.3 476.074C1591.87 481.034 1597.85 483.514 1605.23 483.514C1612.22 483.514 1617.95 480.97 1622.4 475.883C1626.85 470.795 1629.08 463.8 1629.08 454.897C1629.08 445.994 1626.85 438.999 1622.4 433.911C1617.95 428.824 1612.22 426.28 1605.23 426.28C1597.85 426.28 1591.87 428.824 1587.3 433.911Z" fill="#DD1350"/>
<path d="M1661.51 503.546V406.248H1688.22V420.557H1689.17C1690.32 417.504 1692.03 414.833 1694.32 412.544C1699.54 407.075 1706.09 404.34 1713.97 404.34H1725.42V430.096H1711.11C1703.86 430.096 1698.2 432.067 1694.13 436.01C1690.19 439.826 1688.22 445.167 1688.22 452.035V503.546H1661.51Z" fill="#DD1350"/>
<path d="M1728.33 503.546V480.652L1783.66 455.279V453.562L1729.08 430.096V404.181L1804.49 440.104C1806.33 440.983 1807.51 442.844 1807.51 444.888V463.896C1807.51 465.969 1806.3 467.851 1804.42 468.714L1728.33 503.546Z" fill="#DD1350"/>
</svg>
